Coordinates
version=1
nRows=11
nColumns=36
inDegrees=yes

Units are S.I. units (second, meters, Newtons, ...)
If the header above contains a line with 'inDegrees', this indicates whether rotational values are in degrees (yes) or radians (no).

endheader
time	pelvis_tilt	pelvis_list	pelvis_rotation	pelvis_tx	pelvis_ty	pelvis_tz	hip_flexion_r	hip_adduction_r	hip_rotation_r	knee_angle_r	knee_angle_r_beta	ankle_angle_r	subtalar_angle_r	mtp_angle_r	hip_flexion_l	hip_adduction_l	hip_rotation_l	knee_angle_l	knee_angle_l_beta	ankle_angle_l	subtalar_angle_l	mtp_angle_l	lumbar_extension	lumbar_bending	lumbar_rotation	arm_flex_r	arm_add_r	arm_rot_r	elbow_flex_r	pro_sup_r	arm_flex_l	arm_add_l	arm_rot_l	elbow_flex_l	pro_sup_l
      2.03333330	      0.69958348	      3.57937055	      2.55022818	     -0.10596846	      1.13217199	      0.10678268	      6.71513157	     -4.23682145	      2.76217997	     11.19807233	      0.19544323	      9.75628196	     -6.97144076	     -7.49999987	      4.45838513	      0.85775542	     -0.57760948	      6.80974168	      0.11885241	      7.53802924	     -3.70314774	     -7.49999987	     -3.33053301	     -0.29182049	      1.85229279	      2.28077649	     -9.06162022	     -0.85356068	     21.55921157	     84.09378627	      2.86217820	     -6.97612401	      5.82240846	     21.34254350	     74.98009799
      2.05000000	      0.49166776	      3.95768069	      2.72280059	     -0.10555422	      1.13252608	      0.10555771	      7.89746218	     -4.71249676	      3.04644380	     12.99153144	      0.22674500	     10.41001378	     -7.58041822	     -7.49999987	      4.95400133	      1.34577994	     -0.55264601	      7.45005763	      0.13002804	      7.85558479	     -3.69107599	     -7.49999987	     -3.13037951	     -0.71504208	      1.61975328	      2.17117003	     -9.05540446	     -4.33210751	     21.85411221	     89.94734980	      2.10676560	     -6.74156864	      0.46468793	     21.89403294	     78.63486568
      2.06666670	      0.29811034	      4.35511338	      2.87813082	     -0.10612376	      1.13058436	      0.10346689	      9.16444938	     -5.25618499	      3.27099047	     14.99580660	      0.26172620	     10.94408091	     -8.40467105	     -7.49999987	      5.45180837	      1.89199415	     -0.48844569	      7.95820591	      0.13889690	      8.14462981	     -3.80113276	     -7.49999987	     -2.94543524	     -1.15472770	      1.76741264	      1.90970808	     -9.44269927	     -4.56869927	     22.09284618	     88.14157838	      1.85198489	     -7.05581548	      0.20929570	     21.93786328	     77.16722582
      2.08333330	      0.06900210	      4.67097787	      3.06210517	     -0.10485174	      1.13169198	      0.10213694	     10.36475704	     -5.72606320	      3.38200340	     16.77316898	      0.29274702	     11.08857263	     -9.44173279	     -7.49999987	      5.90895130	      2.33072071	     -0.55074692	      8.52123466	      0.14872360	      8.50270624	     -3.71175374	     -7.49999987	     -2.59440232	     -1.46073963	      2.02536850	      1.54229646	     -9.66814096	     -6.72562945	     22.07324791	     91.75029928	      1.64558209	     -7.10510745	     -1.28561019	     21.51342767	     80.25535428
      2.10000000	     -0.11124438	      5.00643391	      3.22816675	     -0.10579660	      1.12452760	      0.10141898	     11.49904123	     -6.20552169	      3.47345273	     18.57580937	      0.32420903	     11.43983228	    -10.35113671	     -7.49999987	      6.30898931	      2.79867560	     -0.52253024	      8.96310781	      0.15643574	      9.14524265	     -3.77495716	     -7.49999987	     -2.33531318	     -1.80954356	      2.09342983	      1.43200405	    -10.05827572	     -7.15989727	     22.05112575	     91.63455222	      1.31723798	     -7.25403369	     -2.10847658	     21.24410786	     80.03733148
      2.11666670	     -0.14945197	      5.35416137	      3.41121174	     -0.10461994	      1.12638562	      0.10076896	     12.21059735	     -6.67580011	      3.46374571	     20.03854003	      0.34973850	     11.60556299	    -11.17068265	     -7.49999987	      6.41486216	      3.24755817	     -0.37368536	      9.17001189	      0.16004690	      9.34097322	     -3.87176469	     -7.49999987	     -2.18815902	     -2.17891277	      2.16207492	      1.24397105	    -10.34899902	     -7.55183252	     22.00152489	     90.11029509	      0.96981125	     -7.35275805	     -2.93139664	     21.06355022	     78.45010394
      2.13333330	     -0.08332163	      5.48294928	      3.63406884	     -0.10629108	      1.13556592	      0.10188823	     12.27504310	     -6.91346965	      3.12317424	     20.40176706	      0.35607801	     11.51916986	    -11.46515587	     -7.49999987	      6.15393716	      3.44886787	     -0.11597776	      8.90261552	      0.15537995	      9.29887310	     -3.58272765	     -7.49999987	     -2.10809608	     -2.27755007	      2.20170729	      1.06175572	    -10.70411192	     -7.69712061	     21.89854265	     90.11134105	      0.62837938	     -7.50984171	     -3.12882995	     20.85186807	     78.42233299
      2.15000000	     -0.72857410	      5.64765784	      3.77822769	     -0.10693707	      1.13062587	      0.10199747	     13.32688106	     -7.07748159	      3.30828744	     21.13441528	      0.36886513	     11.79023782	    -11.95917108	     -7.49999987	      6.79247037	      3.64990772	     -0.01313402	      8.99979922	      0.15707613	      9.56494761	     -3.49479568	     -7.49999987	     -1.15350833	     -2.52565478	      2.18512458	      0.41900619	    -10.96306830	     -7.74179822	     22.78607212	     88.53767819	     -0.36183157	     -7.80654935	     -3.39601858	     21.49316367	     76.94594661
      2.16666670	      0.32441079	      5.63890675	      3.98229838	     -0.10620043	      1.14426534	      0.10378142	     11.78021619	     -6.93337751	      3.04472675	     20.44390527	      0.35681346	     11.24088762	    -12.16131591	     -7.49999987	      5.37636678	      3.54511378	      0.36913603	      8.33860292	      0.14553608	      9.16263019	     -2.87460763	     -7.49999987	     -2.63453405	     -2.52613167	      2.11822852	      1.06036359	    -10.89237118	     -9.72864380	     21.97363556	     89.63609536	      0.09691063	     -7.46955001	     -7.08144813	     20.59391433	     77.36853154
      2.18333330	      0.65393868	      5.55177278	      4.14136234	     -0.10637056	      1.14102374	      0.10321570	     11.16605316	     -6.77731195	      2.81264443	     20.00329034	      0.34912328	     10.82785009	    -12.35979332	     -7.49999987	      4.90452174	      3.41771724	      0.62339374	      7.92197638	      0.13826457	      9.14062006	     -2.35937361	     -7.49999987	     -3.05824952	     -2.42213992	      2.18406265	      1.09938488	    -11.18431779	     -9.75907583	     21.82525431	     88.68385981	      0.08293719	     -7.53690740	     -7.29123130	     20.16491263	     76.45679946
      2.20000000	      1.13114072	      5.50703490	      4.24482046	     -0.10295070	      1.14558716	      0.10225349	     10.26170382	     -6.67015305	      2.45991630	     19.43655650	      0.33923191	     10.39280247	    -12.37870218	     -7.49999987	      4.06394098	      3.30740101	      0.69162638	      7.36657740	      0.12857103	      8.99345641	     -1.59042905	     -7.49999987	     -3.60433158	     -2.36100654	      2.06408127	      1.10383767	    -11.31748447	     -9.95096102	     21.91644375	     88.86894629	     -0.16541525	     -7.57239965	     -7.65752268	     19.94937516	     76.60580393
